<svg width="46" height="29" viewBox="0 0 46 29" fill="none" xmlns="http://www.w3.org/2000/svg">
<path fill-rule="evenodd" clip-rule="evenodd" d="M44.9171 2.01389C45.2583 0.878056 44.9171 0.0523608 43.4078 0.0523608H38.389C37.123 0.0523608 36.5384 0.775347 36.1973 1.54868C36.1973 1.54868 33.6155 8.15424 30.0102 12.4368C28.8411 13.6753 28.3054 14.0882 27.6719 14.0882C27.3307 14.0882 26.8918 13.6753 26.8918 12.5405V1.96052C26.8918 0.619271 26.5027 0 25.4304 0H17.5375C16.7574 0 16.2706 0.619271 16.2706 1.23854C16.2706 2.52844 18.0732 2.83858 18.2678 6.45049V14.2986C18.2678 16.0014 17.9803 16.3125 17.342 16.3125C15.6371 16.3125 11.4962 9.65559 9.01218 2.07028C8.52918 0.567916 8.03851 0 6.77159 0H1.70488C0.243417 0 0 0.721979 0 1.49632C0 2.88993 1.70488 9.90733 7.94076 19.1954C12.0817 25.5391 17.9764 28.9486 23.2866 28.9486C26.5027 28.9486 26.8918 28.1743 26.8918 26.8844V22.0853C26.8918 20.5376 27.1841 20.2799 28.2076 20.2799C28.9379 20.2799 30.2537 20.6917 33.2255 23.7367C36.6352 27.3486 37.2198 29 39.1202 29H44.138C45.5995 29 46.2818 28.2257 45.8918 26.7293C45.4538 25.233 43.7968 23.0661 41.6531 20.4863C40.4839 19.0423 38.7301 17.4423 38.1944 16.668C37.4642 15.6358 37.6587 15.223 38.1944 14.2946C38.1455 14.2946 44.2846 5.10924 44.9171 2.00986" fill="white"/>
</svg>
