<svg width="29" height="29" viewBox="0 0 29 29" fill="none" xmlns="http://www.w3.org/2000/svg">
<path d="M14.5001 1.81256C7.49368 1.81256 1.81262 7.64088 1.81262 14.8229C1.81262 20.5719 5.44895 25.443 10.49 27.1649C10.5607 27.1803 10.6328 27.1879 10.7052 27.1876C11.1753 27.1876 11.3566 26.8421 11.3566 26.5419C11.3566 26.2303 11.3452 25.4147 11.3396 24.3272C10.9199 24.4256 10.4905 24.4769 10.0595 24.4801C7.61829 24.4801 7.06321 22.5827 7.06321 22.5827C6.48547 21.0817 5.65286 20.6796 5.65286 20.6796C4.54836 19.9036 5.64719 19.8809 5.73215 19.8809H5.73782C7.01223 19.9942 7.68059 21.229 7.68059 21.229C8.31497 22.3391 9.16458 22.6506 9.92356 22.6506C10.4254 22.6406 10.9195 22.5248 11.3736 22.3108C11.4868 21.4725 11.8154 20.9005 12.1779 20.5719C9.36282 20.2434 6.40051 19.1276 6.40051 14.1432C6.40051 12.7215 6.89329 11.5604 7.70325 10.6542C7.57297 10.3256 7.13684 9.00026 7.82786 7.21041C7.92055 7.18823 8.01581 7.17871 8.11106 7.18209C8.56985 7.18209 9.60637 7.35768 11.3169 8.54713C13.3954 7.96561 15.5935 7.96561 17.672 8.54713C19.3825 7.35768 20.4191 7.18209 20.8779 7.18209C20.9731 7.17871 21.0684 7.18823 21.1611 7.21041C21.8521 9.00026 21.4159 10.3256 21.2857 10.6542C22.0956 11.5661 22.5884 12.7272 22.5884 14.1432C22.5884 19.1389 19.6204 20.2378 16.7941 20.5606C17.2472 20.9628 17.655 21.7557 17.655 22.9678C17.655 24.7067 17.638 26.1114 17.638 26.5362C17.638 26.8421 17.8136 27.1876 18.2837 27.1876C18.3598 27.1879 18.4357 27.1803 18.5103 27.1649C23.557 25.443 27.1876 20.5663 27.1876 14.8229C27.1876 7.64088 21.5066 1.81256 14.5001 1.81256Z" fill="white"/>
</svg>
