<svg width="29" height="29" viewBox="0 0 29 29" fill="none" xmlns="http://www.w3.org/2000/svg">
<path d="M14.5001 6.10352e-05C6.4925 6.10352e-05 0.00012207 6.49244 0.00012207 14.5001C0.00012207 22.5077 6.4925 29.0001 14.5001 29.0001C22.5077 29.0001 29.0001 22.5077 29.0001 14.5001C29.0001 6.49244 22.5077 6.10352e-05 14.5001 6.10352e-05ZM21.622 9.93377L19.2416 21.1471C19.0664 21.9422 18.5927 22.1355 17.9318 21.7609L14.3068 19.0905L12.5595 20.7749C12.3904 20.9924 12.1282 21.1314 11.8345 21.1314C11.8321 21.1314 11.8309 21.1314 11.8285 21.1314L12.0859 17.4411L18.8042 11.3729C19.0942 11.1155 18.739 10.9693 18.3535 11.2267L10.0535 16.4539L6.47679 15.3374C5.70346 15.0921 5.68171 14.5641 6.63991 14.1847L20.6155 8.79794C21.2656 8.5611 21.8311 8.9526 21.6208 9.93498L21.622 9.93377Z" fill="white"/>
</svg>
